<svg id="trend-chart-all-js" width="660" height="400" title="Stack Overflow Trends Chart" version="1.1" xmlns="http://www.w3.org/2000/svg"><g></g><g class="chart-area" transform="translate(100, 20)"><g transform="translate(0,300)" fill="none" font-size="10" font-family="sans-serif" text-anchor="middle"><path class="domain" stroke="#000" d="M0.5,6V0.5H410.5V6"></path><g class="tick" opacity="1" transform="translate(19.27121723996724,0)"><line stroke="#000" y2="6" x1="0.5" x2="0.5"></line><text fill="#000" y="9" x="0.5" dy="0.71em" style="font-size: 12px;">2009</text></g><g class="tick" opacity="1" transform="translate(65.23251945126945,0)"><line stroke="#000" y2="6" x1="0.5" x2="0.5"></line><text fill="#000" y="9" x="0.5" dy="0.71em" style="font-size: 12px;">2010</text></g><g class="tick" opacity="1" transform="translate(111.19382166257166,0)"><line stroke="#000" y2="6" x1="0.5" x2="0.5"></line><text fill="#000" y="9" x="0.5" dy="0.71em" style="font-size: 12px;">2011</text></g><g class="tick" opacity="1" transform="translate(157.15512387387386,0)"><line stroke="#000" y2="6" x1="0.5" x2="0.5"></line><text fill="#000" y="9" x="0.5" dy="0.71em" style="font-size: 12px;">2012</text></g><g class="tick" opacity="1" transform="translate(203.24234746109747,0)"><line stroke="#000" y2="6" x1="0.5" x2="0.5"></line><text fill="#000" y="9" x="0.5" dy="0.71em" style="font-size: 12px;">2013</text></g><g class="tick" opacity="1" transform="translate(249.20364967239968,0)"><line stroke="#000" y2="6" x1="0.5" x2="0.5"></line><text fill="#000" y="9" x="0.5" dy="0.71em" style="font-size: 12px;">2014</text></g><g class="tick" opacity="1" transform="translate(295.16495188370186,0)"><line stroke="#000" y2="6" x1="0.5" x2="0.5"></line><text fill="#000" y="9" x="0.5" dy="0.71em" style="font-size: 12px;">2015</text></g><g class="tick" opacity="1" transform="translate(341.1262540950041,0)"><line stroke="#000" y2="6" x1="0.5" x2="0.5"></line><text fill="#000" y="9" x="0.5" dy="0.71em" style="font-size: 12px;">2016</text></g><g class="tick" opacity="1" transform="translate(387.2134776822277,0)"><line stroke="#000" y2="6" x1="0.5" x2="0.5"></line><text fill="#000" y="9" x="0.5" dy="0.71em" style="font-size: 12px;">2017</text></g></g><g class="grid-lines" transform="translate(0,300)" fill="none" font-size="10" font-family="sans-serif" text-anchor="middle"><path class="domain" stroke="#000" d="M0.5,-300V0.5H410.5V-300"></path><g class="tick" opacity="1" transform="translate(19.27121723996724,0)"><line stroke="#000" y2="-300" x1="0.5" x2="0.5" style="stroke: #ccc; fill: none;"></line></g><g class="tick" opacity="1" transform="translate(65.23251945126945,0)"><line stroke="#000" y2="-300" x1="0.5" x2="0.5" style="stroke: #ccc; fill: none;"></line></g><g class="tick" opacity="1" transform="translate(111.19382166257166,0)"><line stroke="#000" y2="-300" x1="0.5" x2="0.5" style="stroke: #ccc; fill: none;"></line></g><g class="tick" opacity="1" transform="translate(157.15512387387386,0)"><line stroke="#000" y2="-300" x1="0.5" x2="0.5" style="stroke: #ccc; fill: none;"></line></g><g class="tick" opacity="1" transform="translate(203.24234746109747,0)"><line stroke="#000" y2="-300" x1="0.5" x2="0.5" style="stroke: #ccc; fill: none;"></line></g><g class="tick" opacity="1" transform="translate(249.20364967239968,0)"><line stroke="#000" y2="-300" x1="0.5" x2="0.5" style="stroke: #ccc; fill: none;"></line></g><g class="tick" opacity="1" transform="translate(295.16495188370186,0)"><line stroke="#000" y2="-300" x1="0.5" x2="0.5" style="stroke: #ccc; fill: none;"></line></g><g class="tick" opacity="1" transform="translate(341.1262540950041,0)"><line stroke="#000" y2="-300" x1="0.5" x2="0.5" style="stroke: #ccc; fill: none;"></line></g><g class="tick" opacity="1" transform="translate(387.2134776822277,0)"><line stroke="#000" y2="-300" x1="0.5" x2="0.5" style="stroke: #ccc; fill: none;"></line></g></g><text x="205" y="360" class="axis-label x-axis-label" style="text-anchor: middle; font-weight: bold;">Year</text><g fill="none" font-size="10" font-family="sans-serif" text-anchor="end"><path class="domain" stroke="#000" d="M-6,300.5H0.5V0.5H-6"></path><g class="tick" opacity="1" transform="translate(0,300)"><line stroke="#000" x2="-6" y1="0.5" y2="0.5"></line><text fill="#000" x="-9" y="0.5" dy="0.32em" style="font-size: 12px;">0.00%</text></g><g class="tick" opacity="1" transform="translate(0,276.9230769230769)"><line stroke="#000" x2="-6" y1="0.5" y2="0.5"></line><text fill="#000" x="-9" y="0.5" dy="0.32em" style="font-size: 12px;">1.00%</text></g><g class="tick" opacity="1" transform="translate(0,253.84615384615384)"><line stroke="#000" x2="-6" y1="0.5" y2="0.5"></line><text fill="#000" x="-9" y="0.5" dy="0.32em" style="font-size: 12px;">2.00%</text></g><g class="tick" opacity="1" transform="translate(0,230.76923076923077)"><line stroke="#000" x2="-6" y1="0.5" y2="0.5"></line><text fill="#000" x="-9" y="0.5" dy="0.32em" style="font-size: 12px;">3.00%</text></g><g class="tick" opacity="1" transform="translate(0,207.69230769230768)"><line stroke="#000" x2="-6" y1="0.5" y2="0.5"></line><text fill="#000" x="-9" y="0.5" dy="0.32em" style="font-size: 12px;">4.00%</text></g><g class="tick" opacity="1" transform="translate(0,184.6153846153846)"><line stroke="#000" x2="-6" y1="0.5" y2="0.5"></line><text fill="#000" x="-9" y="0.5" dy="0.32em" style="font-size: 12px;">5.00%</text></g><g class="tick" opacity="1" transform="translate(0,161.53846153846155)"><line stroke="#000" x2="-6" y1="0.5" y2="0.5"></line><text fill="#000" x="-9" y="0.5" dy="0.32em" style="font-size: 12px;">6.00%</text></g><g class="tick" opacity="1" transform="translate(0,138.46153846153842)"><line stroke="#000" x2="-6" y1="0.5" y2="0.5"></line><text fill="#000" x="-9" y="0.5" dy="0.32em" style="font-size: 12px;">7.00%</text></g><g class="tick" opacity="1" transform="translate(0,115.38461538461539)"><line stroke="#000" x2="-6" y1="0.5" y2="0.5"></line><text fill="#000" x="-9" y="0.5" dy="0.32em" style="font-size: 12px;">8.00%</text></g><g class="tick" opacity="1" transform="translate(0,92.30769230769232)"><line stroke="#000" x2="-6" y1="0.5" y2="0.5"></line><text fill="#000" x="-9" y="0.5" dy="0.32em" style="font-size: 12px;">9.00%</text></g><g class="tick" opacity="1" transform="translate(0,69.23076923076923)"><line stroke="#000" x2="-6" y1="0.5" y2="0.5"></line><text fill="#000" x="-9" y="0.5" dy="0.32em" style="font-size: 12px;">10.00%</text></g><g class="tick" opacity="1" transform="translate(0,46.15384615384616)"><line stroke="#000" x2="-6" y1="0.5" y2="0.5"></line><text fill="#000" x="-9" y="0.5" dy="0.32em" style="font-size: 12px;">11.00%</text></g><g class="tick" opacity="1" transform="translate(0,23.076923076923094)"><line stroke="#000" x2="-6" y1="0.5" y2="0.5"></line><text fill="#000" x="-9" y="0.5" dy="0.32em" style="font-size: 12px;">12.00%</text></g><g class="tick" opacity="1" transform="translate(0,0)"><line stroke="#000" x2="-6" y1="0.5" y2="0.5"></line><text fill="#000" x="-9" y="0.5" dy="0.32em" style="font-size: 12px;">13.00%</text></g></g><g class="grid-lines" fill="none" font-size="10" font-family="sans-serif" text-anchor="end"><path class="domain" stroke="#000" d="M410,300.5H0.5V0.5H410"></path><g class="tick" opacity="1" transform="translate(0,300)"><line stroke="#000" x2="410" y1="0.5" y2="0.5" style="stroke: #ccc; fill: none;"></line></g><g class="tick" opacity="1" transform="translate(0,276.9230769230769)"><line stroke="#000" x2="410" y1="0.5" y2="0.5" style="stroke: #ccc; fill: none;"></line></g><g class="tick" opacity="1" transform="translate(0,253.84615384615384)"><line stroke="#000" x2="410" y1="0.5" y2="0.5" style="stroke: #ccc; fill: none;"></line></g><g class="tick" opacity="1" transform="translate(0,230.76923076923077)"><line stroke="#000" x2="410" y1="0.5" y2="0.5" style="stroke: #ccc; fill: none;"></line></g><g class="tick" opacity="1" transform="translate(0,207.69230769230768)"><line stroke="#000" x2="410" y1="0.5" y2="0.5" style="stroke: #ccc; fill: none;"></line></g><g class="tick" opacity="1" transform="translate(0,184.6153846153846)"><line stroke="#000" x2="410" y1="0.5" y2="0.5" style="stroke: #ccc; fill: none;"></line></g><g class="tick" opacity="1" transform="translate(0,161.53846153846155)"><line stroke="#000" x2="410" y1="0.5" y2="0.5" style="stroke: #ccc; fill: none;"></line></g><g class="tick" opacity="1" transform="translate(0,138.46153846153842)"><line stroke="#000" x2="410" y1="0.5" y2="0.5" style="stroke: #ccc; fill: none;"></line></g><g class="tick" opacity="1" transform="translate(0,115.38461538461539)"><line stroke="#000" x2="410" y1="0.5" y2="0.5" style="stroke: #ccc; fill: none;"></line></g><g class="tick" opacity="1" transform="translate(0,92.30769230769232)"><line stroke="#000" x2="410" y1="0.5" y2="0.5" style="stroke: #ccc; fill: none;"></line></g><g class="tick" opacity="1" transform="translate(0,69.23076923076923)"><line stroke="#000" x2="410" y1="0.5" y2="0.5" style="stroke: #ccc; fill: none;"></line></g><g class="tick" opacity="1" transform="translate(0,46.15384615384616)"><line stroke="#000" x2="410" y1="0.5" y2="0.5" style="stroke: #ccc; fill: none;"></line></g><g class="tick" opacity="1" transform="translate(0,23.076923076923094)"><line stroke="#000" x2="410" y1="0.5" y2="0.5" style="stroke: #ccc; fill: none;"></line></g><g class="tick" opacity="1" transform="translate(0,0)"><line stroke="#000" x2="410" y1="0.5" y2="0.5" style="stroke: #ccc; fill: none;"></line></g></g><g class="lines"><path class="line" d="M3.9035626535626538,198.29769230769233L7.681203931203931,188.0556923076923L11.590013308763309,197.22623076923077L15.367654586404585,182.32961538461538L19.27121723996724,186.91707692307693L23.174779893529895,177.19015384615383L26.70057841932842,187.80900000000003L30.598894348894348,187.6426153846154L34.37653562653563,173.50523076923076L38.28009828009828,174.87738461538464L42.05773955773956,177.2466923076923L45.96130221130221,170.31761538461538L49.86486486486487,179.05846153846153L53.64250614250615,172.0636153846154L57.551315520065515,167.94946153846152L61.328956797706795,160.71946153846153L65.23251945126945,167.01346153846154L69.1360821048321,165.57346153846154L72.66188063063062,169.49215384615385L76.56019656019656,162.56538461538463L80.33783783783784,158.61623076923078L84.2414004914005,158.0386153846154L88.01904176904176,154.4356153846154L91.92260442260442,156.35930769230768L95.82616707616708,150.41053846153844L99.60380835380836,152.23384615384614L103.51261773136774,150.95146153846156L107.29025900900902,137.18446153846156L111.19382166257166,144.44030769230767L115.09738431613431,145.74553846153847L118.62318284193283,147.01246153846157L122.52149877149877,135.12946153846158L126.29914004914005,133.87453846153846L130.20270270270268,123.15646153846154L133.98034398034397,116.5116923076923L137.88390663390663,110.26338461538461L141.7874692874693,116.77107692307692L145.5651105651106,119.21792307692306L149.47391994266994,118.32069230769233L153.25156122031123,116.84953846153846L157.15512387387386,111.57046153846156L161.05868652743652,116.32546153846152L164.71040642915642,117.82407692307694L168.60872235872236,111.10153846153844L172.38636363636365,104.63861538461538L176.28992628992629,104.09907692307695L180.06756756756758,102.0890769230769L183.9711302211302,99.35353846153845L187.87469287469287,107.38984615384618L191.65233415233416,111.35169230769233L195.56114352989354,109.93569230769234L199.3387848075348,102.35100000000003L203.24234746109747,100.1843076923077L207.14591011466013,96.75369230769232L210.67170864045866,99.14053846153845L214.5700245700246,95.77038461538461L218.34766584766584,94.44576923076926L222.25122850122852,90.3999230769231L226.02886977886976,83.00538461538463L229.93243243243245,74.5583076923077L233.8359950859951,55.78846153846155L237.61363636363637,55.700769230769254L241.52244574119575,60.6738461538462L245.30008701883702,51.27692307692308L249.20364967239968,45.18923076923076L253.10721232596234,43.29000000000002L256.63301085176084,51.25846153846152L260.5313267813268,48.61615384615388L264.3089680589681,44.0953846153846L268.21253071253074,43.086923076923085L271.99017199017203,41.1830769230769L275.89373464373466,42.2746153846154L279.7972972972973,51.35538461538465L283.5749385749386,50.54538461538465L287.48374795249794,53.8453846153846L291.26138923013923,50.206153846153825L295.16495188370186,45.579230769230804L299.06851453726455,47.370000000000005L302.59431306306305,53.561538461538504L306.492628992629,48.685384615384606L310.27027027027026,27.978461538461545L314.17383292383295,25.710000000000036L317.95147420147424,20.189999999999998L321.8550368550369,21.24230769230769L325.7585995085995,25.306153846153848L329.5362407862408,32.97230769230771L333.44505016380015,27.38076923076926L337.22269144144144,21.316153846153895L341.1262540950041,16.246153846153845L345.02981674856676,28.170000000000016L348.68153665028666,27.45923076923077L352.57985257985257,28.599230769230758L356.35749385749386,23.2961538461538L360.2610565110565,25.756153846153836L364.0386977886978,14.076923076923038L367.9422604422604,18.597692307692284L371.8458230958231,33.85384615384618L375.62346437346434,40.45153846153846L379.53227375102375,38.824615384615356L383.30991502866505,28.806923076923113L387.2134776822277,29.79000000000002L391.1170403357903,32.28923076923081L394.64283886158887,37.85769230769233L398.5411547911548,36.08307692307693L402.3187960687961,34.700769230769254L406.2223587223587,32.7853846153846L410,35.56384615384616" data-legend="javascript" style="stroke: rgb(31, 119, 180); fill: none; opacity: 1; stroke-width: 1px;"></path><path class="line" d="M3.9035626535626538,300L7.681203931203931,300L11.590013308763309,300L15.367654586404585,300L19.27121723996724,300L23.174779893529895,300L26.70057841932842,300L30.598894348894348,300L34.37653562653563,300L38.28009828009828,300L42.05773955773956,300L45.96130221130221,300L49.86486486486487,300L53.64250614250615,300L57.551315520065515,300L61.328956797706795,300L65.23251945126945,300L69.1360821048321,300L72.66188063063062,300L76.56019656019656,300L80.33783783783784,300L84.2414004914005,300L88.01904176904176,300L91.92260442260442,300L95.82616707616708,300L99.60380835380836,300L103.51261773136774,300L107.29025900900902,300L111.19382166257166,300L115.09738431613431,300L118.62318284193283,300L122.52149877149877,300L126.29914004914005,300L130.20270270270268,300L133.98034398034397,300L137.88390663390663,300L141.7874692874693,300L145.5651105651106,299.97784615384614L149.47391994266994,299.9376923076923L153.25156122031123,299.3016923076923L157.15512387387386,298.94815384615384L161.05868652743652,298.36061538461536L164.71040642915642,297.89376923076924L168.60872235872236,297.93553846153844L172.38636363636365,297.9036923076923L176.28992628992629,297.65146153846155L180.06756756756758,297.1906153846154L183.9711302211302,296.9623846153846L187.87469287469287,296.40438461538463L191.65233415233416,297.51115384615383L195.56114352989354,297.4153846153846L199.3387848075348,296.646L203.24234746109747,295.0945384615385L207.14591011466013,294.1010769230769L210.67170864045866,294.1343076923077L214.5700245700246,294.36115384615385L218.34766584766584,295.089L222.25122850122852,295.76169230769233L226.02886977886976,293.685L229.93243243243245,292.97907692307695L233.8359950859951,292.6029230769231L237.61363636363637,294.3036923076923L241.52244574119575,294.20815384615383L245.30008701883702,293.8001538461538L249.20364967239968,294.8734615384615L253.10721232596234,294.3553846153846L256.63301085176084,294.7585384615385L260.5313267813268,294.01869230769233L264.3089680589681,293.7034615384615L268.21253071253074,292.74484615384614L271.99017199017203,293.8326923076923L275.89373464373466,292.9850769230769L279.7972972972973,293.9316923076923L283.5749385749386,294.2515384615385L287.48374795249794,294.5642307692308L291.26138923013923,294.06461538461537L295.16495188370186,293.56084615384617L299.06851453726455,294.5261538461539L302.59431306306305,294.9456923076923L306.492628992629,295.19123076923074L310.27027027027026,295.2429230769231L314.17383292383295,294.85407692307695L317.95147420147424,295.29276923076924L321.8550368550369,295.29L325.7585995085995,295.79561538461536L329.5362407862408,296.0753076923077L333.44505016380015,296.1463846153846L337.22269144144144,296.76715384615386L341.1262540950041,296.1632307692308L345.02981674856676,296.8749230769231L348.68153665028666,296.7572307692308L352.57985257985257,297.00946153846155L356.35749385749386,296.7893076923077L360.2610565110565,296.25L364.0386977886978,296.9942307692308L367.9422604422604,297.1703076923077L371.8458230958231,297.1220769230769L375.62346437346434,297.6567692307692L379.53227375102375,297.9080769230769L383.30991502866505,298.07815384615384L387.2134776822277,297.44030769230767L391.1170403357903,297.3080769230769L394.64283886158887,297.9113076923077L398.5411547911548,297.6556153846154L402.3187960687961,298.1157692307692L406.2223587223587,298.25376923076925L410,298.1993076923077" data-legend="ember.js" style="stroke: rgb(255, 127, 14); fill: none; opacity: 1; stroke-width: 1px;"></path><path class="line" d="M3.9035626535626538,300L7.681203931203931,300L11.590013308763309,300L15.367654586404585,300L19.27121723996724,300L23.174779893529895,300L26.70057841932842,300L30.598894348894348,300L34.37653562653563,300L38.28009828009828,300L42.05773955773956,300L45.96130221130221,300L49.86486486486487,300L53.64250614250615,300L57.551315520065515,300L61.328956797706795,300L65.23251945126945,300L69.1360821048321,300L72.66188063063062,300L76.56019656019656,300L80.33783783783784,300L84.2414004914005,300L88.01904176904176,300L91.92260442260442,300L95.82616707616708,300L99.60380835380836,300L103.51261773136774,300L107.29025900900902,300L111.19382166257166,300L115.09738431613431,300L118.62318284193283,300L122.52149877149877,300L126.29914004914005,300L130.20270270270268,300L133.98034398034397,300L137.88390663390663,300L141.7874692874693,300L145.5651105651106,300L149.47391994266994,300L153.25156122031123,300L157.15512387387386,300L161.05868652743652,300L164.71040642915642,300L168.60872235872236,300L172.38636363636365,300L176.28992628992629,300L180.06756756756758,300L183.9711302211302,300L187.87469287469287,300L191.65233415233416,300L195.56114352989354,300L199.3387848075348,300L203.24234746109747,300L207.14591011466013,300L210.67170864045866,300L214.5700245700246,300L218.34766584766584,300L222.25122850122852,300L226.02886977886976,300L229.93243243243245,300L233.8359950859951,300L237.61363636363637,300L241.52244574119575,300L245.30008701883702,300L249.20364967239968,300L253.10721232596234,300L256.63301085176084,300L260.5313267813268,300L264.3089680589681,299.9873076923077L268.21253071253074,300L271.99017199017203,300L275.89373464373466,299.9863846153846L279.7972972972973,300L283.5749385749386,300L287.48374795249794,299.973L291.26138923013923,300L295.16495188370186,299.9866153846154L299.06851453726455,299.9866153846154L302.59431306306305,299.7503076923077L306.492628992629,299.8453846153846L310.27027027027026,299.48907692307694L314.17383292383295,299.29061538461536L317.95147420147424,299.2483846153846L321.8550368550369,299.15284615384616L325.7585995085995,299.0346923076923L329.5362407862408,298.5343846153846L333.44505016380015,297.1984615384615L337.22269144144144,294.25384615384615L341.1262540950041,288.61407692307694L345.02981674856676,287.10415384615385L348.68153665028666,284.51215384615386L352.57985257985257,282.48046153846155L356.35749385749386,277.4893846153846L360.2610565110565,273.0897692307692L364.0386977886978,269.91623076923076L367.9422604422604,267.36415384615384L371.8458230958231,263.59223076923075L375.62346437346434,258.4186153846154L379.53227375102375,259.2844615384615L383.30991502866505,256.05392307692307L387.2134776822277,255.10961538461538L391.1170403357903,250.08392307692307L394.64283886158887,250.80415384615384L398.5411547911548,249.47330769230769L402.3187960687961,248.3783076923077L406.2223587223587,243.84369230769232L410,241.06776923076922" data-legend="angular" style="stroke: rgb(44, 160, 44); fill: none; opacity: 1; stroke-width: 1px;"></path><path class="line" d="M3.9035626535626538,300L7.681203931203931,300L11.590013308763309,300L15.367654586404585,300L19.27121723996724,300L23.174779893529895,300L26.70057841932842,300L30.598894348894348,300L34.37653562653563,300L38.28009828009828,300L42.05773955773956,300L45.96130221130221,300L49.86486486486487,300L53.64250614250615,300L57.551315520065515,300L61.328956797706795,300L65.23251945126945,300L69.1360821048321,300L72.66188063063062,300L76.56019656019656,300L80.33783783783784,300L84.2414004914005,300L88.01904176904176,300L91.92260442260442,300L95.82616707616708,300L99.60380835380836,300L103.51261773136774,300L107.29025900900902,300L111.19382166257166,300L115.09738431613431,300L118.62318284193283,300L122.52149877149877,300L126.29914004914005,300L130.20270270270268,300L133.98034398034397,300L137.88390663390663,300L141.7874692874693,300L145.5651105651106,300L149.47391994266994,300L153.25156122031123,300L157.15512387387386,300L161.05868652743652,300L164.71040642915642,300L168.60872235872236,300L172.38636363636365,300L176.28992628992629,300L180.06756756756758,300L183.9711302211302,300L187.87469287469287,300L191.65233415233416,300L195.56114352989354,300L199.3387848075348,300L203.24234746109747,300L207.14591011466013,300L210.67170864045866,300L214.5700245700246,300L218.34766584766584,299.9866153846154L222.25122850122852,299.9716153846154L226.02886977886976,299.9746153846154L229.93243243243245,299.98684615384616L233.8359950859951,299.8772307692308L237.61363636363637,299.93884615384616L241.52244574119575,299.91046153846156L245.30008701883702,299.7133846153846L249.20364967239968,299.4385384615385L253.10721232596234,299.43553846153844L256.63301085176084,299.51169230769233L260.5313267813268,299.61761538461536L264.3089680589681,299.18261538461536L268.21253071253074,299.0586923076923L271.99017199017203,298.98276923076924L275.89373464373466,298.96638461538464L279.7972972972973,298.7104615384615L283.5749385749386,298.26646153846156L287.48374795249794,297.86353846153844L291.26138923013923,297.54761538461537L295.16495188370186,297.29676923076926L299.06851453726455,295.5593076923077L302.59431306306305,295.49284615384613L306.492628992629,294.60784615384614L310.27027027027026,294.6710769230769L314.17383292383295,293.6637692307692L317.95147420147424,292.56323076923076L321.8550368550369,292.4739230769231L325.7585995085995,290.51169230769233L329.5362407862408,289.8976153846154L333.44505016380015,287.9441538461538L337.22269144144144,286.77992307692307L341.1262540950041,285.61176923076926L345.02981674856676,286.1942307692308L348.68153665028666,283.6398461538462L352.57985257985257,282.87L356.35749385749386,281.63953846153845L360.2610565110565,279.6249230769231L364.0386977886978,276.8065384615385L367.9422604422604,275.3226923076923L371.8458230958231,276.4795384615385L375.62346437346434,276.6463846153846L379.53227375102375,275.85184615384617L383.30991502866505,272.79992307692305L387.2134776822277,271.8886153846154L391.1170403357903,271.76746153846153L394.64283886158887,272.06376923076925L398.5411547911548,268.0100769230769L402.3187960687961,264.94015384615386L406.2223587223587,262.58446153846154L410,260.6136923076923" data-legend="reactjs" style="stroke: rgb(214, 39, 40); fill: none; opacity: 1; stroke-width: 1px;"></path><path class="line" d="M3.9035626535626538,300L7.681203931203931,300L11.590013308763309,300L15.367654586404585,300L19.27121723996724,300L23.174779893529895,300L26.70057841932842,300L30.598894348894348,300L34.37653562653563,300L38.28009828009828,300L42.05773955773956,300L45.96130221130221,300L49.86486486486487,300L53.64250614250615,300L57.551315520065515,300L61.328956797706795,300L65.23251945126945,300L69.1360821048321,300L72.66188063063062,300L76.56019656019656,300L80.33783783783784,300L84.2414004914005,300L88.01904176904176,300L91.92260442260442,300L95.82616707616708,300L99.60380835380836,300L103.51261773136774,300L107.29025900900902,300L111.19382166257166,300L115.09738431613431,300L118.62318284193283,300L122.52149877149877,300L126.29914004914005,300L130.20270270270268,300L133.98034398034397,300L137.88390663390663,300L141.7874692874693,300L145.5651105651106,300L149.47391994266994,300L153.25156122031123,300L157.15512387387386,300L161.05868652743652,300L164.71040642915642,300L168.60872235872236,300L172.38636363636365,300L176.28992628992629,300L180.06756756756758,300L183.9711302211302,300L187.87469287469287,300L191.65233415233416,300L195.56114352989354,300L199.3387848075348,300L203.24234746109747,300L207.14591011466013,300L210.67170864045866,300L214.5700245700246,300L218.34766584766584,300L222.25122850122852,300L226.02886977886976,300L229.93243243243245,300L233.8359950859951,300L237.61363636363637,300L241.52244574119575,300L245.30008701883702,300L249.20364967239968,300L253.10721232596234,300L256.63301085176084,300L260.5313267813268,300L264.3089680589681,300L268.21253071253074,300L271.99017199017203,300L275.89373464373466,300L279.7972972972973,300L283.5749385749386,300L287.48374795249794,300L291.26138923013923,300L295.16495188370186,299.95938461538464L299.06851453726455,299.772L302.59431306306305,299.7860769230769L306.492628992629,299.55969230769233L310.27027027027026,299.73253846153847L314.17383292383295,299.69953846153845L317.95147420147424,299.5606153846154L321.8550368550369,299.4145384615385L325.7585995085995,299.58092307692306L329.5362407862408,299.5883076923077L333.44505016380015,299.31553846153844L337.22269144144144,299.0446153846154L341.1262540950041,299.4519230769231L345.02981674856676,299.05407692307693L348.68153665028666,299.07184615384614L352.57985257985257,299.10646153846153L356.35749385749386,298.9179230769231L360.2610565110565,298.7663076923077L364.0386977886978,298.4845384615385L367.9422604422604,298.04284615384614L371.8458230958231,298.2895384615385L375.62346437346434,298.51315384615384L379.53227375102375,298.9315384615385L383.30991502866505,298.53115384615387L387.2134776822277,298.6130769230769L391.1170403357903,298.5523846153846L394.64283886158887,298.91653846153844L398.5411547911548,299.058L402.3187960687961,299.0056153846154L406.2223587223587,298.8759230769231L410,299.1680769230769" data-legend="aurelia" style="stroke: rgb(148, 103, 189); fill: none; opacity: 1; stroke-width: 1px;"></path><path class="line" d="M3.9035626535626538,300L7.681203931203931,300L11.590013308763309,300L15.367654586404585,300L19.27121723996724,300L23.174779893529895,300L26.70057841932842,300L30.598894348894348,300L34.37653562653563,300L38.28009828009828,300L42.05773955773956,300L45.96130221130221,300L49.86486486486487,300L53.64250614250615,300L57.551315520065515,300L61.328956797706795,300L65.23251945126945,300L69.1360821048321,300L72.66188063063062,300L76.56019656019656,300L80.33783783783784,300L84.2414004914005,300L88.01904176904176,300L91.92260442260442,300L95.82616707616708,300L99.60380835380836,300L103.51261773136774,299.8368461538462L107.29025900900902,299.64092307692306L111.19382166257166,299.80107692307695L115.09738431613431,299.289L118.62318284193283,299.19092307692307L122.52149877149877,298.746L126.29914004914005,298.1030769230769L130.20270270270268,298.173L133.98034398034397,297.63738461538463L137.88390663390663,296.9150769230769L141.7874692874693,296.34138461538464L145.5651105651106,295.6206923076923L149.47391994266994,296.0113846153846L153.25156122031123,294.3911538461538L157.15512387387386,294.8963076923077L161.05868652743652,293.8066153846154L164.71040642915642,294.6752307692308L168.60872235872236,293.9286923076923L172.38636363636365,293.1403846153846L176.28992628992629,291.7973076923077L180.06756756756758,292.4125384615385L183.9711302211302,292.4379230769231L187.87469287469287,293.7161538461539L191.65233415233416,293.46853846153846L195.56114352989354,294.40223076923075L199.3387848075348,292.69084615384617L203.24234746109747,292.02853846153846L207.14591011466013,291.9309230769231L210.67170864045866,293.10276923076924L214.5700245700246,293.56315384615385L218.34766584766584,292.84292307692306L222.25122850122852,293.3296153846154L226.02886977886976,293.41707692307693L229.93243243243245,292.7402307692308L233.8359950859951,293.5310769230769L237.61363636363637,294.18115384615385L241.52244574119575,293.88784615384617L245.30008701883702,294.4555384615385L249.20364967239968,294.4195384615385L253.10721232596234,293.87515384615386L256.63301085176084,294.71515384615384L260.5313267813268,295.00384615384615L264.3089680589681,295.632L268.21253071253074,295.59715384615384L271.99017199017203,295.24407692307693L275.89373464373466,295.9343076923077L279.7972972972973,296.2123846153846L283.5749385749386,295.8156923076923L287.48374795249794,296.47084615384614L291.26138923013923,296.51723076923076L295.16495188370186,296.7939230769231L299.06851453726455,297.2766923076923L302.59431306306305,297.4075384615385L306.492628992629,297.69092307692307L310.27027027027026,297.5303076923077L314.17383292383295,297.34292307692306L317.95147420147424,297.15484615384617L321.8550368550369,297.5203846153846L325.7585995085995,297.4850769230769L329.5362407862408,297.432L333.44505016380015,297.85776923076924L337.22269144144144,298.61261538461537L341.1262540950041,298.49284615384613L345.02981674856676,298.52723076923075L348.68153665028666,298.53507692307693L352.57985257985257,298.57938461538464L356.35749385749386,298.82284615384617L360.2610565110565,298.94953846153845L364.0386977886978,299.00676923076924L367.9422604422604,298.97423076923076L371.8458230958231,299.064L375.62346437346434,298.73838461538463L379.53227375102375,299.1002307692308L383.30991502866505,299.2534615384615L387.2134776822277,299.2670769230769L391.1170403357903,299.46853846153846L394.64283886158887,299.3169230769231L398.5411547911548,299.51815384615384L402.3187960687961,299.44523076923076L406.2223587223587,299.43253846153846L410,299.59984615384616" data-legend="backbone.js" style="stroke: rgb(140, 86, 75); fill: none; opacity: 1; stroke-width: 1px;"></path><path class="line" d="M3.9035626535626538,300L7.681203931203931,300L11.590013308763309,300L15.367654586404585,300L19.27121723996724,300L23.174779893529895,300L26.70057841932842,300L30.598894348894348,300L34.37653562653563,300L38.28009828009828,300L42.05773955773956,300L45.96130221130221,300L49.86486486486487,300L53.64250614250615,300L57.551315520065515,300L61.328956797706795,300L65.23251945126945,300L69.1360821048321,300L72.66188063063062,300L76.56019656019656,300L80.33783783783784,300L84.2414004914005,300L88.01904176904176,300L91.92260442260442,300L95.82616707616708,300L99.60380835380836,300L103.51261773136774,300L107.29025900900902,300L111.19382166257166,300L115.09738431613431,300L118.62318284193283,300L122.52149877149877,300L126.29914004914005,300L130.20270270270268,300L133.98034398034397,300L137.88390663390663,300L141.7874692874693,300L145.5651105651106,300L149.47391994266994,300L153.25156122031123,300L157.15512387387386,300L161.05868652743652,300L164.71040642915642,300L168.60872235872236,297.7430769230769L172.38636363636365,298.49053846153845L176.28992628992629,298.8948461538462L180.06756756756758,299.016L183.9711302211302,298.737L187.87469287469287,299.31530769230767L191.65233415233416,298.62738461538464L195.56114352989354,298.3636153846154L199.3387848075348,298.14784615384616L203.24234746109747,297.36184615384616L207.14591011466013,297.6113076923077L210.67170864045866,297.138L214.5700245700246,297.64523076923075L218.34766584766584,297.5919230769231L222.25122850122852,296.985L226.02886977886976,297.14238461538463L229.93243243243245,296.8146923076923L233.8359950859951,297.66623076923076L237.61363636363637,297.5254615384615L241.52244574119575,296.9503846153846L245.30008701883702,296.1353076923077L249.20364967239968,295.98484615384615L253.10721232596234,296.073L256.63301085176084,295.39869230769233L260.5313267813268,295.98923076923074L264.3089680589681,295.632L268.21253071253074,295.74946153846156L271.99017199017203,295.74L275.89373464373466,294.6800769230769L279.7972972972973,293.76876923076924L283.5749385749386,294.1603846153846L287.48374795249794,291.87323076923076L291.26138923013923,292.62807692307695L295.16495188370186,291.67246153846156L299.06851453726455,291.4806923076923L302.59431306306305,291.1283076923077L306.492628992629,290.4655384615385L310.27027027027026,291.021L314.17383292383295,290.28507692307693L317.95147420147424,290.68961538461537L321.8550368550369,289.94446153846155L325.7585995085995,290.46092307692305L329.5362407862408,290.7696923076923L333.44505016380015,291.87415384615383L337.22269144144144,290.8899230769231L341.1262540950041,290.61969230769233L345.02981674856676,290.5047692307692L348.68153665028666,292.407L352.57985257985257,292.57523076923076L356.35749385749386,293.21007692307694L360.2610565110565,293.70923076923077L364.0386977886978,293.58092307692306L367.9422604422604,293.3383846153846L371.8458230958231,294.3828461538462L375.62346437346434,295.1446153846154L379.53227375102375,294.8713846153846L383.30991502866505,294.9200769230769L387.2134776822277,295.8842307692308L391.1170403357903,295.9280769230769L394.64283886158887,296.14453846153845L398.5411547911548,296.41776923076924L402.3187960687961,296.59776923076925L406.2223587223587,296.5183846153846L410,296.34576923076924" data-legend="meteor" style="stroke: rgb(227, 119, 194); fill: none; opacity: 1; stroke-width: 1px;"></path><path class="line" d="M3.9035626535626538,299.2054615384615L7.681203931203931,298.45384615384614L11.590013308763309,299.46576923076924L15.367654586404585,298.6885384615385L19.27121723996724,299.14223076923076L23.174779893529895,298.96707692307695L26.70057841932842,299.778L30.598894348894348,299.04253846153847L34.37653562653563,299.118L38.28009828009828,298.9548461538462L42.05773955773956,298.8777692307692L45.96130221130221,298.8863076923077L49.86486486486487,298.9647692307692L53.64250614250615,297.8658461538462L57.551315520065515,298.2844615384615L61.328956797706795,298.5523846153846L65.23251945126945,297.86746153846155L69.1360821048321,298.27015384615385L72.66188063063062,298.3403076923077L76.56019656019656,298.54246153846157L80.33783783783784,298.42176923076926L84.2414004914005,298.40723076923075L88.01904176904176,298.53992307692306L91.92260442260442,298.3553076923077L95.82616707616708,298.3276153846154L99.60380835380836,299.17984615384614L103.51261773136774,298.7598461538461L107.29025900900902,298.30246153846156L111.19382166257166,298.26576923076925L115.09738431613431,298.5777692307692L118.62318284193283,298.764L122.52149877149877,298.4146153846154L126.29914004914005,299.0741538461538L130.20270270270268,298.7896153846154L133.98034398034397,298.29L137.88390663390663,298.4153076923077L141.7874692874693,298.80276923076923L145.5651105651106,298.81592307692307L149.47391994266994,298.5874615384615L153.25156122031123,298.77784615384616L157.15512387387386,298.85076923076923L161.05868652743652,299.0346923076923L164.71040642915642,299.2756153846154L168.60872235872236,299.19530769230767L172.38636363636365,299.26223076923077L176.28992628992629,299.3439230769231L180.06756756756758,299.44453846153846L183.9711302211302,299.2647692307692L187.87469287469287,299.298L191.65233415233416,299.5022307692308L195.56114352989354,299.54123076923076L199.3387848075348,299.66630769230767L203.24234746109747,299.35846153846154L207.14591011466013,299.6213076923077L210.67170864045866,299.0976923076923L214.5700245700246,299.5160769230769L218.34766584766584,299.48607692307695L222.25122850122852,299.6019230769231L226.02886977886976,299.5153846153846L229.93243243243245,299.655L233.8359950859951,299.5633846153846L237.61363636363637,299.7796153846154L241.52244574119575,299.67969230769233L245.30008701883702,299.63146153846156L249.20364967239968,299.80892307692307L253.10721232596234,299.6397692307692L256.63301085176084,299.7396923076923L260.5313267813268,299.7683076923077L264.3089680589681,299.7830769230769L268.21253071253074,299.8756153846154L271.99017199017203,299.8093846153846L275.89373464373466,299.87607692307694L279.7972972972973,299.8373076923077L283.5749385749386,299.8437692307692L287.48374795249794,299.865L291.26138923013923,299.913L295.16495188370186,299.95938461538464L299.06851453726455,299.82576923076925L302.59431306306305,299.88115384615384L306.492628992629,299.89292307692307L310.27027027027026,299.90284615384616L314.17383292383295,299.928L317.95147420147424,299.8728461538461L321.8550368550369,299.88807692307694L325.7585995085995,299.9619230769231L329.5362407862408,299.96376923076923L333.44505016380015,299.96215384615385L337.22269144144144,299.9870769230769L341.1262540950041,299.96284615384616L345.02981674856676,299.91623076923076L348.68153665028666,299.96653846153845L352.57985257985257,300L356.35749385749386,300L360.2610565110565,299.9513076923077L364.0386977886978,299.9619230769231L367.9422604422604,299.9176153846154L371.8458230958231,299.9423076923077L375.62346437346434,299.93261538461536L379.53227375102375,299.9776153846154L383.30991502866505,299.9633076923077L387.2134776822277,299.9889230769231L391.1170403357903,299.9660769230769L394.64283886158887,299.9903076923077L398.5411547911548,299.9783076923077L402.3187960687961,300L406.2223587223587,299.9674615384615L410,299.96861538461536" data-legend="mootools" style="stroke: rgb(127, 127, 127); fill: none; opacity: 1; stroke-width: 1px;"></path><path class="line" d="M3.9035626535626538,300L7.681203931203931,300L11.590013308763309,300L15.367654586404585,300L19.27121723996724,300L23.174779893529895,300L26.70057841932842,300L30.598894348894348,300L34.37653562653563,300L38.28009828009828,300L42.05773955773956,300L45.96130221130221,300L49.86486486486487,300L53.64250614250615,300L57.551315520065515,300L61.328956797706795,300L65.23251945126945,300L69.1360821048321,300L72.66188063063062,300L76.56019656019656,300L80.33783783783784,300L84.2414004914005,300L88.01904176904176,300L91.92260442260442,300L95.82616707616708,300L99.60380835380836,300L103.51261773136774,300L107.29025900900902,300L111.19382166257166,300L115.09738431613431,300L118.62318284193283,300L122.52149877149877,300L126.29914004914005,300L130.20270270270268,300L133.98034398034397,300L137.88390663390663,300L141.7874692874693,300L145.5651105651106,300L149.47391994266994,300L153.25156122031123,300L157.15512387387386,300L161.05868652743652,300L164.71040642915642,300L168.60872235872236,300L172.38636363636365,300L176.28992628992629,300L180.06756756756758,300L183.9711302211302,300L187.87469287469287,300L191.65233415233416,300L195.56114352989354,300L199.3387848075348,300L203.24234746109747,300L207.14591011466013,300L210.67170864045866,300L214.5700245700246,300L218.34766584766584,300L222.25122850122852,300L226.02886977886976,300L229.93243243243245,300L233.8359950859951,300L237.61363636363637,300L241.52244574119575,300L245.30008701883702,300L249.20364967239968,300L253.10721232596234,300L256.63301085176084,299.98915384615384L260.5313267813268,300L264.3089680589681,299.949L268.21253071253074,300L271.99017199017203,299.9619230769231L275.89373464373466,300L279.7972972972973,299.973L283.5749385749386,299.97415384615385L287.48374795249794,299.9596153846154L291.26138923013923,299.95661538461536L295.16495188370186,299.94576923076926L299.06851453726455,299.9866153846154L302.59431306306305,299.97623076923077L306.492628992629,299.9406923076923L310.27027027027026,299.8663846153846L314.17383292383295,299.5553076923077L317.95147420147424,299.49115384615385L321.8550368550369,299.47684615384617L325.7585995085995,299.35223076923074L329.5362407862408,299.53984615384616L333.44505016380015,299.17615384615385L337.22269144144144,298.9266923076923L341.1262540950041,298.4056153846154L345.02981674856676,298.57523076923076L348.68153665028666,298.61353846153844L352.57985257985257,297.8916923076923L356.35749385749386,298.20438461538464L360.2610565110565,298.1799230769231L364.0386977886978,297.975L367.9422604422604,297.3708461538462L371.8458230958231,297.11053846153845L375.62346437346434,296.5303846153846L379.53227375102375,295.7598461538461L383.30991502866505,295.0423846153846L387.2134776822277,294.3846923076923L391.1170403357903,294.5933076923077L394.64283886158887,293.0501538461539L398.5411547911548,293.17476923076924L402.3187960687961,292.09615384615387L406.2223587223587,291.61753846153846L410,291.312" data-legend="vue.js" style="stroke: rgb(188, 189, 34); fill: none; opacity: 1; stroke-width: 1px;"></path></g></g><g transform="translate(20, 150)"><text transform="rotate(-90)" x="-50" y="0" dy="1em" class="axis-label y-axis-label" style="text-anchor: middle; font-weight: bold;">% of Stack Overflow questions that month</text></g><g class="legend" transform="translate(530, 30)" style="font-size: 12px;"><text class="legend-title" style="font-weight: bold;">Tag</text><g class="legend-items" transform="translate(0,20)"><text y="0em" x="1em">javascript</text><text y="1em" x="1em">angular</text><text y="2em" x="1em">reactjs</text><text y="3em" x="1em">meteor</text><text y="4em" x="1em">vue.js</text><text y="5em" x="1em">backbone.js</text><text y="6em" x="1em">ember.js</text><text y="7em" x="1em">mootools</text><text y="8em" x="1em" style="font-weight: normal;">aurelia</text><circle cy="-0.25em" cx="0" r="0.4em" style="fill: rgb(31, 119, 180);"></circle><circle cy="0.75em" cx="0" r="0.4em" style="fill: rgb(44, 160, 44);"></circle><circle cy="1.75em" cx="0" r="0.4em" style="fill: rgb(214, 39, 40);"></circle><circle cy="2.75em" cx="0" r="0.4em" style="fill: rgb(227, 119, 194);"></circle><circle cy="3.75em" cx="0" r="0.4em" style="fill: rgb(188, 189, 34);"></circle><circle cy="4.75em" cx="0" r="0.4em" style="fill: rgb(140, 86, 75);"></circle><circle cy="5.75em" cx="0" r="0.4em" style="fill: rgb(255, 127, 14);"></circle><circle cy="6.75em" cx="0" r="0.4em" style="fill: rgb(127, 127, 127);"></circle><circle cy="7.75em" cx="0" r="0.4em" style="fill: rgb(148, 103, 189);"></circle></g><rect class="legend-box"></rect></g></svg>
