<svg id="trend-chart-mootools" width="660" height="400" title="Stack Overflow Trends Chart" version="1.1" xmlns="http://www.w3.org/2000/svg"><g></g><g class="chart-area" transform="translate(100, 20)"><g transform="translate(0,300)" fill="none" font-size="10" font-family="sans-serif" text-anchor="middle"><path class="domain" stroke="#000" d="M0.5,6V0.5H410.5V6"></path><g class="tick" opacity="1" transform="translate(19.27121723996724,0)"><line stroke="#000" y2="6" x1="0.5" x2="0.5"></line><text fill="#000" y="9" x="0.5" dy="0.71em" style="font-size: 12px;">2009</text></g><g class="tick" opacity="1" transform="translate(65.23251945126945,0)"><line stroke="#000" y2="6" x1="0.5" x2="0.5"></line><text fill="#000" y="9" x="0.5" dy="0.71em" style="font-size: 12px;">2010</text></g><g class="tick" opacity="1" transform="translate(111.19382166257166,0)"><line stroke="#000" y2="6" x1="0.5" x2="0.5"></line><text fill="#000" y="9" x="0.5" dy="0.71em" style="font-size: 12px;">2011</text></g><g class="tick" opacity="1" transform="translate(157.15512387387386,0)"><line stroke="#000" y2="6" x1="0.5" x2="0.5"></line><text fill="#000" y="9" x="0.5" dy="0.71em" style="font-size: 12px;">2012</text></g><g class="tick" opacity="1" transform="translate(203.24234746109747,0)"><line stroke="#000" y2="6" x1="0.5" x2="0.5"></line><text fill="#000" y="9" x="0.5" dy="0.71em" style="font-size: 12px;">2013</text></g><g class="tick" opacity="1" transform="translate(249.20364967239968,0)"><line stroke="#000" y2="6" x1="0.5" x2="0.5"></line><text fill="#000" y="9" x="0.5" dy="0.71em" style="font-size: 12px;">2014</text></g><g class="tick" opacity="1" transform="translate(295.16495188370186,0)"><line stroke="#000" y2="6" x1="0.5" x2="0.5"></line><text fill="#000" y="9" x="0.5" dy="0.71em" style="font-size: 12px;">2015</text></g><g class="tick" opacity="1" transform="translate(341.1262540950041,0)"><line stroke="#000" y2="6" x1="0.5" x2="0.5"></line><text fill="#000" y="9" x="0.5" dy="0.71em" style="font-size: 12px;">2016</text></g><g class="tick" opacity="1" transform="translate(387.2134776822277,0)"><line stroke="#000" y2="6" x1="0.5" x2="0.5"></line><text fill="#000" y="9" x="0.5" dy="0.71em" style="font-size: 12px;">2017</text></g></g><g class="grid-lines" transform="translate(0,300)" fill="none" font-size="10" font-family="sans-serif" text-anchor="middle"><path class="domain" stroke="#000" d="M0.5,-300V0.5H410.5V-300"></path><g class="tick" opacity="1" transform="translate(19.27121723996724,0)"><line stroke="#000" y2="-300" x1="0.5" x2="0.5" style="stroke: #ccc; fill: none;"></line></g><g class="tick" opacity="1" transform="translate(65.23251945126945,0)"><line stroke="#000" y2="-300" x1="0.5" x2="0.5" style="stroke: #ccc; fill: none;"></line></g><g class="tick" opacity="1" transform="translate(111.19382166257166,0)"><line stroke="#000" y2="-300" x1="0.5" x2="0.5" style="stroke: #ccc; fill: none;"></line></g><g class="tick" opacity="1" transform="translate(157.15512387387386,0)"><line stroke="#000" y2="-300" x1="0.5" x2="0.5" style="stroke: #ccc; fill: none;"></line></g><g class="tick" opacity="1" transform="translate(203.24234746109747,0)"><line stroke="#000" y2="-300" x1="0.5" x2="0.5" style="stroke: #ccc; fill: none;"></line></g><g class="tick" opacity="1" transform="translate(249.20364967239968,0)"><line stroke="#000" y2="-300" x1="0.5" x2="0.5" style="stroke: #ccc; fill: none;"></line></g><g class="tick" opacity="1" transform="translate(295.16495188370186,0)"><line stroke="#000" y2="-300" x1="0.5" x2="0.5" style="stroke: #ccc; fill: none;"></line></g><g class="tick" opacity="1" transform="translate(341.1262540950041,0)"><line stroke="#000" y2="-300" x1="0.5" x2="0.5" style="stroke: #ccc; fill: none;"></line></g><g class="tick" opacity="1" transform="translate(387.2134776822277,0)"><line stroke="#000" y2="-300" x1="0.5" x2="0.5" style="stroke: #ccc; fill: none;"></line></g></g><text x="205" y="360" class="axis-label x-axis-label" style="text-anchor: middle; font-weight: bold;">Year</text><g fill="none" font-size="10" font-family="sans-serif" text-anchor="end"><path class="domain" stroke="#000" d="M-6,300.5H0.5V0.5H-6"></path><g class="tick" opacity="1" transform="translate(0,300)"><line stroke="#000" x2="-6" y1="0.5" y2="0.5"></line><text fill="#000" x="-9" y="0.5" dy="0.32em" style="font-size: 12px;">0.00%</text></g><g class="tick" opacity="1" transform="translate(0,270)"><line stroke="#000" x2="-6" y1="0.5" y2="0.5"></line><text fill="#000" x="-9" y="0.5" dy="0.32em" style="font-size: 12px;">0.01%</text></g><g class="tick" opacity="1" transform="translate(0,240)"><line stroke="#000" x2="-6" y1="0.5" y2="0.5"></line><text fill="#000" x="-9" y="0.5" dy="0.32em" style="font-size: 12px;">0.02%</text></g><g class="tick" opacity="1" transform="translate(0,210)"><line stroke="#000" x2="-6" y1="0.5" y2="0.5"></line><text fill="#000" x="-9" y="0.5" dy="0.32em" style="font-size: 12px;">0.03%</text></g><g class="tick" opacity="1" transform="translate(0,180)"><line stroke="#000" x2="-6" y1="0.5" y2="0.5"></line><text fill="#000" x="-9" y="0.5" dy="0.32em" style="font-size: 12px;">0.04%</text></g><g class="tick" opacity="1" transform="translate(0,150)"><line stroke="#000" x2="-6" y1="0.5" y2="0.5"></line><text fill="#000" x="-9" y="0.5" dy="0.32em" style="font-size: 12px;">0.05%</text></g><g class="tick" opacity="1" transform="translate(0,120)"><line stroke="#000" x2="-6" y1="0.5" y2="0.5"></line><text fill="#000" x="-9" y="0.5" dy="0.32em" style="font-size: 12px;">0.06%</text></g><g class="tick" opacity="1" transform="translate(0,90)"><line stroke="#000" x2="-6" y1="0.5" y2="0.5"></line><text fill="#000" x="-9" y="0.5" dy="0.32em" style="font-size: 12px;">0.07%</text></g><g class="tick" opacity="1" transform="translate(0,60)"><line stroke="#000" x2="-6" y1="0.5" y2="0.5"></line><text fill="#000" x="-9" y="0.5" dy="0.32em" style="font-size: 12px;">0.08%</text></g><g class="tick" opacity="1" transform="translate(0,30)"><line stroke="#000" x2="-6" y1="0.5" y2="0.5"></line><text fill="#000" x="-9" y="0.5" dy="0.32em" style="font-size: 12px;">0.09%</text></g><g class="tick" opacity="1" transform="translate(0,0)"><line stroke="#000" x2="-6" y1="0.5" y2="0.5"></line><text fill="#000" x="-9" y="0.5" dy="0.32em" style="font-size: 12px;">0.10%</text></g></g><g class="grid-lines" fill="none" font-size="10" font-family="sans-serif" text-anchor="end"><path class="domain" stroke="#000" d="M410,300.5H0.5V0.5H410"></path><g class="tick" opacity="1" transform="translate(0,300)"><line stroke="#000" x2="410" y1="0.5" y2="0.5" style="stroke: #ccc; fill: none;"></line></g><g class="tick" opacity="1" transform="translate(0,270)"><line stroke="#000" x2="410" y1="0.5" y2="0.5" style="stroke: #ccc; fill: none;"></line></g><g class="tick" opacity="1" transform="translate(0,240)"><line stroke="#000" x2="410" y1="0.5" y2="0.5" style="stroke: #ccc; fill: none;"></line></g><g class="tick" opacity="1" transform="translate(0,210)"><line stroke="#000" x2="410" y1="0.5" y2="0.5" style="stroke: #ccc; fill: none;"></line></g><g class="tick" opacity="1" transform="translate(0,180)"><line stroke="#000" x2="410" y1="0.5" y2="0.5" style="stroke: #ccc; fill: none;"></line></g><g class="tick" opacity="1" transform="translate(0,150)"><line stroke="#000" x2="410" y1="0.5" y2="0.5" style="stroke: #ccc; fill: none;"></line></g><g class="tick" opacity="1" transform="translate(0,120)"><line stroke="#000" x2="410" y1="0.5" y2="0.5" style="stroke: #ccc; fill: none;"></line></g><g class="tick" opacity="1" transform="translate(0,90)"><line stroke="#000" x2="410" y1="0.5" y2="0.5" style="stroke: #ccc; fill: none;"></line></g><g class="tick" opacity="1" transform="translate(0,60)"><line stroke="#000" x2="410" y1="0.5" y2="0.5" style="stroke: #ccc; fill: none;"></line></g><g class="tick" opacity="1" transform="translate(0,30)"><line stroke="#000" x2="410" y1="0.5" y2="0.5" style="stroke: #ccc; fill: none;"></line></g><g class="tick" opacity="1" transform="translate(0,0)"><line stroke="#000" x2="410" y1="0.5" y2="0.5" style="stroke: #ccc; fill: none;"></line></g></g><g class="lines"><path class="line" d="M3.9035626535626538,196.71L7.681203931203931,99L11.590013308763309,230.55L15.367654586404585,129.51L19.27121723996724,188.49L23.174779893529895,165.71999999999997L26.70057841932842,271.14L30.598894348894348,175.53L34.37653562653563,185.34L38.28009828009828,164.13000000000002L42.05773955773956,154.10999999999999L45.96130221130221,155.22L49.86486486486487,165.42000000000002L53.64250614250615,22.560000000000002L57.551315520065515,76.97999999999999L61.328956797706795,111.81000000000003L65.23251945126945,22.769999999999982L69.1360821048321,75.11999999999998L72.66188063063062,84.23999999999998L76.56019656019656,110.52000000000001L80.33783783783784,94.82999999999998L84.2414004914005,92.94000000000003L88.01904176904176,110.19L91.92260442260442,86.19L95.82616707616708,82.58999999999997L99.60380835380836,193.38L103.51261773136774,138.78L107.29025900900902,79.32000000000002L111.19382166257166,74.55000000000001L115.09738431613431,115.11000000000001L118.62318284193283,139.32000000000002L122.52149877149877,93.9L126.29914004914005,179.64L130.20270270270268,142.65L133.98034398034397,77.69999999999999L137.88390663390663,93.99000000000001L141.7874692874693,144.35999999999999L145.5651105651106,146.07L149.47391994266994,116.37L153.25156122031123,141.12L157.15512387387386,150.60000000000002L161.05868652743652,174.51000000000002L164.71040642915642,205.83L168.60872235872236,195.39000000000001L172.38636363636365,204.09L176.28992628992629,214.71L180.06756756756758,227.79L183.9711302211302,204.42000000000002L187.87469287469287,208.74L191.65233415233416,235.29000000000002L195.56114352989354,240.36L199.3387848075348,256.62L203.24234746109747,216.60000000000002L207.14591011466013,250.77L210.67170864045866,182.7L214.5700245700246,237.09L218.34766584766584,233.19L222.25122850122852,248.25L226.02886977886976,237L229.93243243243245,255.15L233.8359950859951,243.24L237.61363636363637,271.35L241.52244574119575,258.36L245.30008701883702,252.09L249.20364967239968,275.16L253.10721232596234,253.17000000000002L256.63301085176084,266.16L260.5313267813268,269.88L264.3089680589681,271.8L268.21253071253074,283.83L271.99017199017203,275.22L275.89373464373466,283.89L279.7972972972973,278.85L283.5749385749386,279.69L287.48374795249794,282.45L291.26138923013923,288.69L295.16495188370186,294.72L299.06851453726455,277.35L302.59431306306305,284.55L306.492628992629,286.08L310.27027027027026,287.37L314.17383292383295,290.64L317.95147420147424,283.47L321.8550368550369,285.45L325.7585995085995,295.05L329.5362407862408,295.29L333.44505016380015,295.08L337.22269144144144,298.32L341.1262540950041,295.17L345.02981674856676,289.11L348.68153665028666,295.65L352.57985257985257,300L356.35749385749386,300L360.2610565110565,293.67L364.0386977886978,295.05L367.9422604422604,289.29L371.8458230958231,292.5L375.62346437346434,291.24L379.53227375102375,297.09L383.30991502866505,295.23L387.2134776822277,298.56L391.1170403357903,295.59L394.64283886158887,298.74L398.5411547911548,297.18L402.3187960687961,300L406.2223587223587,295.77L410,295.92" data-legend="mootools" style="stroke: rgb(31, 119, 180); fill: none;"></path></g></g><g transform="translate(20, 150)"><text transform="rotate(-90)" x="-50" y="0" dy="1em" class="axis-label y-axis-label" style="text-anchor: middle; font-weight: bold;">% of Stack Overflow questions that month</text></g><g class="legend" transform="translate(530, 30)" style="font-size: 12px;"><text class="legend-title" style="font-weight: bold;">Tag</text><g class="legend-items" transform="translate(0,20)"><text y="0em" x="1em">mootools</text><circle cy="-0.25em" cx="0" r="0.4em" style="fill: rgb(31, 119, 180);"></circle></g><rect class="legend-box"></rect></g></svg>
